<?xml version="1.0" encoding="utf-8"?>
<!-- Generator: Adobe Illustrator 23.0.5, SVG Export Plug-In . SVG Version: 6.00 Build 0)  -->
<svg version="1.1" id="Publicdomainvectors.org" xmlns="http://www.w3.org/2000/svg" xmlns:xlink="http://www.w3.org/1999/xlink"
	 x="0px" y="0px" viewBox="0 0 512.29 512.29" style="enable-background:new 0 0 512.29 512.29;" xml:space="preserve">
<g>
	<path d="M421.26,161.38c-8-20.8-78.34-21.44-88.09-25.35c-1.95,7.95-17.4,27.9-30.3,24.6c70.2-57.3-48.1-68.1-54.5-111.11
		c-13.58,48.21,49.61,49,37.8,89.41c-0.83,2.84-5.6,2.2-9.4,1.3c14.1-27-20.1-40.5-22.8-42.3c-1.2-0.3-21,0-21,0s-62.4,72-64.2,75
		c2.4,10.8,0.2,21.8,0.2,21.8s-46.4,82.01-78.8,85.61c-2.4,28.2,9.6,30.4,20,34.8c10.4,4.4,15.16,22.31,33.2,27.6
		c36.8,10.8,72.81-26.4,83.61-18.4c15.2,5.2,60.8,20.38,60.8,20.38s30.64,70.41-31.63,113.61
		C362.6,446.48,506.37,310.68,421.26,161.38 M151.51,290.97c-0.2,0.9-0.27,1.67-0.65,2.72c-0.55,2.02-1.5,3.63-2.6,5.09
		c-1.12,1.42-2.42,2.56-3.77,3.31c-1.29,0.83-2.63,1.25-3.78,1.58c-1.17,0.29-2.2,0.41-3.04,0.44c-1.69,0.06-2.62-0.15-2.62-0.15
		s0.94-0.2,2.43-0.78c1.48-0.58,3.55-1.57,5.38-3.3c0.94-0.84,1.73-1.93,2.43-3.11c0.3-0.63,0.66-1.23,0.85-1.95
		c0.26-0.69,0.45-1.37,0.59-2.07c0.2-0.6,0.24-1.61,0.35-2.47c0.08-0.69,0.06-1.46-0.02-2.12c-0.17-1.37-0.71-2.37-1.64-3.07
		c-0.9-0.74-2.32-1.1-3.8-1.21c-1.49-0.05-3.08,0.09-4.57,0.49c-3.01,0.77-5.67,2.24-7.7,3.83c-2.01,1.63-3.41,3.4-4.22,4.76
		c-0.39,0.67-0.73,1.24-0.9,1.65c-0.19,0.4-0.3,0.61-0.3,0.61c0.05-0.01-0.06-0.93,0.31-2.6c0.35-1.65,1.25-4.01,3.16-6.35
		c1.89-2.32,4.74-4.59,8.38-5.92c1.81-0.64,3.81-1.13,5.97-1.12c2.13,0.04,4.53,0.49,6.58,2.05c2.07,1.52,3.27,4.16,3.36,6.41
		C151.8,288.84,151.74,289.9,151.51,290.97 M244.67,202.64c-5.1,2.1-24.9,5.4-25.5-10.2c9.3-5.4,34.58-11.85,36.98-14.55
		C256.14,177.89,249.77,200.54,244.67,202.64 M164.56,69.73c-1.2,17.2,15.4,41.2,47,41.23c-7.82,9.11-17.87,23.29-22.85,24.63
		C165.61,122.09,149.26,92.23,164.56,69.73 M256.14,0C114.91,0,0,114.91,0,256.14c0,141.24,114.91,256.14,256.14,256.14
		c141.24,0,256.14-114.91,256.14-256.14C512.29,114.91,397.38,0,256.14,0 M256.14,469.04c-117.39,0-212.89-95.5-212.89-212.89
		c0-117.39,95.5-212.89,212.89-212.89c117.39,0,212.89,95.5,212.89,212.89C469.03,373.53,373.53,469.04,256.14,469.04"/>
</g>
</svg>
